<svg width="1920" height="1080" viewBox="0 0 1920 1080" xmlns="http://www.w3.org/2000/svg">
  <defs>
    <linearGradient id="bgGradient" x1="0%" y1="0%" x2="100%" y2="100%">
      <stop offset="0%" style="stop-color:#1E3A8A;stop-opacity:0.15" />
      <stop offset="50%" style="stop-color:#3B82F6;stop-opacity:0.12" />
      <stop offset="100%" style="stop-color:#60A5FA;stop-opacity:0.1" />
    </linearGradient>
    <linearGradient id="hexGradient" x1="0%" y1="0%" x2="100%" y2="100%">
      <stop offset="0%" style="stop-color:#2563EB;stop-opacity:0.2" />
      <stop offset="50%" style="stop-color:#3B82F6;stop-opacity:0.15" />
      <stop offset="100%" style="stop-color:#60A5FA;stop-opacity:0.1" />
    </linearGradient>
    <radialGradient id="centerGlow" cx="50%" cy="50%">
      <stop offset="0%" style="stop-color:#3B82F6;stop-opacity:0.1" />
      <stop offset="100%" style="stop-color:#1E3A8A;stop-opacity:0" />
    </radialGradient>
  </defs>
  
  <!-- Background -->
  <rect width="1920" height="1080" fill="url(#bgGradient)"/>
  
  <!-- Multiple logo patterns arranged across the background -->
  <g opacity="0.4">
    <!-- Top-left logo -->
    <g transform="translate(200, 150)">
      <g>
        <!-- Outer hexagon -->
        <path d="M 0,-170 L 147.22,-85 L 147.22,85 L 0,170 L -147.22,85 L -147.22,-85 Z" 
              fill="url(#hexGradient)" 
              stroke="#3B82F6" 
              stroke-width="2" 
              opacity="0.3"/>
        
        <!-- Inner core -->
        <path d="M 0,-120 L 103.92,-60 L 103.92,60 L 0,120 L -103.92,60 L -103.92,-60 Z" 
              fill="#3B82F6" 
              stroke="#2563EB" 
              stroke-width="2" 
              opacity="0.2"/>
      </g>
      
      <!-- Central hub -->
      <circle cx="0" cy="0" r="12" fill="#60A5FA" opacity="0.3"/>
      
      <!-- Tree branches -->
      <g stroke="#60A5FA" stroke-width="3" fill="none" opacity="0.25" stroke-linecap="round">
        <line x1="0" y1="0" x2="0" y2="-90"/>
        <line x1="0" y1="0" x2="-55" y2="32"/>
        <line x1="-55" y1="32" x2="-80" y2="46"/>
        <line x1="0" y1="0" x2="40" y2="0"/>
        <line x1="40" y1="0" x2="65" y2="0"/>
        <line x1="40" y1="0" x2="75" y2="-45"/>
        <line x1="40" y1="0" x2="75" y2="45"/>
        <line x1="75" y1="-45" x2="90" y2="-58"/>
        <line x1="75" y1="-45" x2="90" y2="-32"/>
        <line x1="75" y1="45" x2="90" y2="32"/>
        <line x1="75" y1="45" x2="90" y2="58"/>
      </g>
      
      <!-- Tree nodes -->
      <g opacity="0.3">
        <circle cx="0" cy="-90" r="8" fill="#60A5FA"/>
        <circle cx="-55" cy="32" r="8" fill="#60A5FA"/>
        <circle cx="-80" cy="46" r="7" fill="#60A5FA"/>
        <circle cx="40" cy="0" r="9" fill="#60A5FA"/>
        <circle cx="65" cy="0" r="7" fill="#60A5FA"/>
        <circle cx="75" cy="-45" r="7" fill="#60A5FA"/>
        <circle cx="75" cy="45" r="7" fill="#60A5FA"/>
        <circle cx="90" cy="-58" r="6" fill="#60A5FA"/>
        <circle cx="90" cy="-32" r="6" fill="#60A5FA"/>
        <circle cx="90" cy="32" r="6" fill="#60A5FA"/>
        <circle cx="90" cy="58" r="6" fill="#60A5FA"/>
      </g>
      
      <!-- Center glow -->
      <circle cx="0" cy="0" r="50" fill="url(#centerGlow)"/>
    </g>
    
    <!-- Top-right logo -->
    <g transform="translate(1520, 200)">
      <g>
        <path d="M 0,-170 L 147.22,-85 L 147.22,85 L 0,170 L -147.22,85 L -147.22,-85 Z" 
              fill="url(#hexGradient)" 
              stroke="#3B82F6" 
              stroke-width="2" 
              opacity="0.3"/>
        <path d="M 0,-120 L 103.92,-60 L 103.92,60 L 0,120 L -103.92,60 L -103.92,-60 Z" 
              fill="#3B82F6" 
              stroke="#2563EB" 
              stroke-width="2" 
              opacity="0.2"/>
      </g>
      <circle cx="0" cy="0" r="12" fill="#60A5FA" opacity="0.3"/>
      <g stroke="#60A5FA" stroke-width="3" fill="none" opacity="0.25" stroke-linecap="round">
        <line x1="0" y1="0" x2="0" y2="-90"/>
        <line x1="0" y1="0" x2="-55" y2="32"/>
        <line x1="-55" y1="32" x2="-80" y2="46"/>
        <line x1="0" y1="0" x2="40" y2="0"/>
        <line x1="40" y1="0" x2="65" y2="0"/>
        <line x1="40" y1="0" x2="75" y2="-45"/>
        <line x1="40" y1="0" x2="75" y2="45"/>
        <line x1="75" y1="-45" x2="90" y2="-58"/>
        <line x1="75" y1="-45" x2="90" y2="-32"/>
        <line x1="75" y1="45" x2="90" y2="32"/>
        <line x1="75" y1="45" x2="90" y2="58"/>
      </g>
      <g opacity="0.3">
        <circle cx="0" cy="-90" r="8" fill="#60A5FA"/>
        <circle cx="-55" cy="32" r="8" fill="#60A5FA"/>
        <circle cx="-80" cy="46" r="7" fill="#60A5FA"/>
        <circle cx="40" cy="0" r="9" fill="#60A5FA"/>
        <circle cx="65" cy="0" r="7" fill="#60A5FA"/>
        <circle cx="75" cy="-45" r="7" fill="#60A5FA"/>
        <circle cx="75" cy="45" r="7" fill="#60A5FA"/>
        <circle cx="90" cy="-58" r="6" fill="#60A5FA"/>
        <circle cx="90" cy="-32" r="6" fill="#60A5FA"/>
        <circle cx="90" cy="32" r="6" fill="#60A5FA"/>
        <circle cx="90" cy="58" r="6" fill="#60A5FA"/>
      </g>
      <circle cx="0" cy="0" r="50" fill="url(#centerGlow)"/>
    </g>
    
    <!-- Bottom-left logo -->
    <g transform="translate(300, 780)">
      <g>
        <path d="M 0,-170 L 147.22,-85 L 147.22,85 L 0,170 L -147.22,85 L -147.22,-85 Z" 
              fill="url(#hexGradient)" 
              stroke="#3B82F6" 
              stroke-width="2" 
              opacity="0.3"/>
        <path d="M 0,-120 L 103.92,-60 L 103.92,60 L 0,120 L -103.92,60 L -103.92,-60 Z" 
              fill="#3B82F6" 
              stroke="#2563EB" 
              stroke-width="2" 
              opacity="0.2"/>
      </g>
      <circle cx="0" cy="0" r="12" fill="#60A5FA" opacity="0.3"/>
      <g stroke="#60A5FA" stroke-width="3" fill="none" opacity="0.25" stroke-linecap="round">
        <line x1="0" y1="0" x2="0" y2="-90"/>
        <line x1="0" y1="0" x2="-55" y2="32"/>
        <line x1="-55" y1="32" x2="-80" y2="46"/>
        <line x1="0" y1="0" x2="40" y2="0"/>
        <line x1="40" y1="0" x2="65" y2="0"/>
        <line x1="40" y1="0" x2="75" y2="-45"/>
        <line x1="40" y1="0" x2="75" y2="45"/>
        <line x1="75" y1="-45" x2="90" y2="-58"/>
        <line x1="75" y1="-45" x2="90" y2="-32"/>
        <line x1="75" y1="45" x2="90" y2="32"/>
        <line x1="75" y1="45" x2="90" y2="58"/>
      </g>
      <g opacity="0.3">
        <circle cx="0" cy="-90" r="8" fill="#60A5FA"/>
        <circle cx="-55" cy="32" r="8" fill="#60A5FA"/>
        <circle cx="-80" cy="46" r="7" fill="#60A5FA"/>
        <circle cx="40" cy="0" r="9" fill="#60A5FA"/>
        <circle cx="65" cy="0" r="7" fill="#60A5FA"/>
        <circle cx="75" cy="-45" r="7" fill="#60A5FA"/>
        <circle cx="75" cy="45" r="7" fill="#60A5FA"/>
        <circle cx="90" cy="-58" r="6" fill="#60A5FA"/>
        <circle cx="90" cy="-32" r="6" fill="#60A5FA"/>
        <circle cx="90" cy="32" r="6" fill="#60A5FA"/>
        <circle cx="90" cy="58" r="6" fill="#60A5FA"/>
      </g>
      <circle cx="0" cy="0" r="50" fill="url(#centerGlow)"/>
    </g>
    
    <!-- Bottom-right logo -->
    <g transform="translate(1620, 830)">
      <g>
        <path d="M 0,-170 L 147.22,-85 L 147.22,85 L 0,170 L -147.22,85 L -147.22,-85 Z" 
              fill="url(#hexGradient)" 
              stroke="#3B82F6" 
              stroke-width="2" 
              opacity="0.3"/>
        <path d="M 0,-120 L 103.92,-60 L 103.92,60 L 0,120 L -103.92,60 L -103.92,-60 Z" 
              fill="#3B82F6" 
              stroke="#2563EB" 
              stroke-width="2" 
              opacity="0.2"/>
      </g>
      <circle cx="0" cy="0" r="12" fill="#60A5FA" opacity="0.3"/>
      <g stroke="#60A5FA" stroke-width="3" fill="none" opacity="0.25" stroke-linecap="round">
        <line x1="0" y1="0" x2="0" y2="-90"/>
        <line x1="0" y1="0" x2="-55" y2="32"/>
        <line x1="-55" y1="32" x2="-80" y2="46"/>
        <line x1="0" y1="0" x2="40" y2="0"/>
        <line x1="40" y1="0" x2="65" y2="0"/>
        <line x1="40" y1="0" x2="75" y2="-45"/>
        <line x1="40" y1="0" x2="75" y2="45"/>
        <line x1="75" y1="-45" x2="90" y2="-58"/>
        <line x1="75" y1="-45" x2="90" y2="-32"/>
        <line x1="75" y1="45" x2="90" y2="32"/>
        <line x1="75" y1="45" x2="90" y2="58"/>
      </g>
      <g opacity="0.3">
        <circle cx="0" cy="-90" r="8" fill="#60A5FA"/>
        <circle cx="-55" cy="32" r="8" fill="#60A5FA"/>
        <circle cx="-80" cy="46" r="7" fill="#60A5FA"/>
        <circle cx="40" cy="0" r="9" fill="#60A5FA"/>
        <circle cx="65" cy="0" r="7" fill="#60A5FA"/>
        <circle cx="75" cy="-45" r="7" fill="#60A5FA"/>
        <circle cx="75" cy="45" r="7" fill="#60A5FA"/>
        <circle cx="90" cy="-58" r="6" fill="#60A5FA"/>
        <circle cx="90" cy="-32" r="6" fill="#60A5FA"/>
        <circle cx="90" cy="32" r="6" fill="#60A5FA"/>
        <circle cx="90" cy="58" r="6" fill="#60A5FA"/>
      </g>
      <circle cx="0" cy="0" r="50" fill="url(#centerGlow)"/>
    </g>
    
    <!-- Center logo (larger, more subtle) -->
    <g transform="translate(960, 540)" opacity="0.25">
      <g>
        <path d="M 0,-170 L 147.22,-85 L 147.22,85 L 0,170 L -147.22,85 L -147.22,-85 Z" 
              fill="url(#hexGradient)" 
              stroke="#3B82F6" 
              stroke-width="2" 
              opacity="0.3"/>
        <path d="M 0,-120 L 103.92,-60 L 103.92,60 L 0,120 L -103.92,60 L -103.92,-60 Z" 
              fill="#3B82F6" 
              stroke="#2563EB" 
              stroke-width="2" 
              opacity="0.2"/>
      </g>
      <circle cx="0" cy="0" r="12" fill="#60A5FA" opacity="0.3"/>
      <g stroke="#60A5FA" stroke-width="3" fill="none" opacity="0.2" stroke-linecap="round">
        <line x1="0" y1="0" x2="0" y2="-90"/>
        <line x1="0" y1="0" x2="-55" y2="32"/>
        <line x1="-55" y1="32" x2="-80" y2="46"/>
        <line x1="0" y1="0" x2="40" y2="0"/>
        <line x1="40" y1="0" x2="65" y2="0"/>
        <line x1="40" y1="0" x2="75" y2="-45"/>
        <line x1="40" y1="0" x2="75" y2="45"/>
        <line x1="75" y1="-45" x2="90" y2="-58"/>
        <line x1="75" y1="-45" x2="90" y2="-32"/>
        <line x1="75" y1="45" x2="90" y2="32"/>
        <line x1="75" y1="45" x2="90" y2="58"/>
      </g>
      <g opacity="0.25">
        <circle cx="0" cy="-90" r="8" fill="#60A5FA"/>
        <circle cx="-55" cy="32" r="8" fill="#60A5FA"/>
        <circle cx="-80" cy="46" r="7" fill="#60A5FA"/>
        <circle cx="40" cy="0" r="9" fill="#60A5FA"/>
        <circle cx="65" cy="0" r="7" fill="#60A5FA"/>
        <circle cx="75" cy="-45" r="7" fill="#60A5FA"/>
        <circle cx="75" cy="45" r="7" fill="#60A5FA"/>
        <circle cx="90" cy="-58" r="6" fill="#60A5FA"/>
        <circle cx="90" cy="-32" r="6" fill="#60A5FA"/>
        <circle cx="90" cy="32" r="6" fill="#60A5FA"/>
        <circle cx="90" cy="58" r="6" fill="#60A5FA"/>
      </g>
      <circle cx="0" cy="0" r="50" fill="url(#centerGlow)"/>
    </g>
  </g>
</svg>

